<svg xmlns="http://www.w3.org/2000/svg" width="442" height="135" shape-rendering="geometricPrecision" text-rendering="geometricPrecision" image-rendering="optimizeQuality" fill-rule="evenodd" clip-rule="evenodd"><path fill="#bababa" d="M51.5-.5h14a561.716 561.716 0 0139 21.5 252.45 252.45 0 0112.5 8.5c.667 7.667.667 15.333 0 23-2 1-2 2 0 3 .101 12.245.268 24.412.5 36.5l-.5 11.5a478.011 478.011 0 01-53.5 31h-9a448.195 448.195 0 01-55-31v-23c1.333-.667 1.333-1.333 0-2v-23c2.667-1 2.667-2 0-3v-23a1014.392 1014.392 0 0152-30zm5 19c2.717.178 5.383.678 8 1.5a1004.733 1004.733 0 0137 21 481.706 481.706 0 01-36 21c-4.667 2-9.333 2-14 0a609.2 609.2 0 01-36-21 620.029 620.029 0 0141-22.5zm50 41c1.387 1.989 1.053 3.822-1 5.5a1004.733 1004.733 0 01-37 21c-5.126 3.031-10.46 3.698-16 2-14.904-7.273-28.904-15.773-42-25.5l1-2a1153.54 1153.54 0 0135 20.5c7.976 4.46 15.976 4.46 24 0a942.227 942.227 0 0036-21.5zm-1 26c1.086.12 1.753.787 2 2-1.207 1.949-2.873 3.449-5 4.5a901.242 901.242 0 00-35 20c-5.183 2.815-10.516 3.148-16 1a1004.879 1004.879 0 00-37-21c-1.827-.9-3.16-2.233-4-4l1-1.5a852.413 852.413 0 0134 19.5c8.667 4.667 17.333 4.667 26 0a842.862 842.862 0 0034-20.5z" opacity=".787"/><path fill="#bababa" d="M193.5-.5h21a7598.707 7598.707 0 0054 132.5c-7.247.812-14.414.646-21.5-.5A1955.227 1955.227 0 00231.5 93c-18-.667-36-.667-54 0a1327.416 1327.416 0 00-14.5 38.5c-6.752 1.145-13.586 1.311-20.5.5a7474.498 7474.498 0 0051-132.5zm10 19a3014.671 3014.671 0 0123 59 484.898 484.898 0 01-44 1l21-60z" opacity=".964"/><path fill="#bababa" d="M284.5-.5h15v133h-15V-.5z" opacity=".945"/><path fill="#b9b9b9" d="M329.5-.5h82c16.841 6.052 25.507 18.219 26 36.5-.932 18.93-10.599 30.597-29 35 7.833 3.833 13.667 9.667 17.5 17.5a1097.233 1097.233 0 0015.5 40v3c-6.7.33-13.366-.003-20-1a606.59 606.59 0 00-15.5-41c-5.891-9.364-14.391-14.197-25.5-14.5a512.462 512.462 0 00-32-.5v57h-19V-.5zm19 14c14.004-.167 28.004 0 42 .5 23.616.767 31.783 12.267 24.5 34.5-7.588 7.398-16.754 10.565-27.5 9.5-12.996.5-25.996.667-39 .5v-45z" opacity=".955"/></svg>